<?xml version="1.0" encoding="utf-8"?>
<COLLADA xmlns="http://www.collada.org/2005/11/COLLADASchema" version="1.4.1" xmlns:xsi="http://www.w3.org/2001/XMLSchema-instance">
  <asset>
    <contributor>
      <author>Blender User</author>
      <authoring_tool>Blender 2.91.2 commit date:2021-01-19, commit time:16:15, hash:5be9ef417703</authoring_tool>
    </contributor>
    <created>2021-02-01T01:59:45</created>
    <modified>2021-02-01T01:59:45</modified>
    <unit name="meter" meter="1"/>
    <up_axis>Z_UP</up_axis>
  </asset>
  <library_cameras>
    <camera id="Camera-camera" name="Camera">
      <optics>
        <technique_common>
          <perspective>
            <xfov sid="xfov">39.59775</xfov>
            <aspect_ratio>1.777778</aspect_ratio>
            <znear sid="znear">0.1</znear>
            <zfar sid="zfar">100</zfar>
          </perspective>
        </technique_common>
      </optics>
      <extra>
        <technique profile="blender">
          <shiftx sid="shiftx" type="float">0</shiftx>
          <shifty sid="shifty" type="float">0</shifty>
          <dof_distance sid="dof_distance" type="float">10</dof_distance>
        </technique>
      </extra>
    </camera>
  </library_cameras>
  <library_lights>
    <light id="Light-light" name="Light">
      <technique_common>
        <point>
          <color sid="color">1000 1000 1000</color>
          <constant_attenuation>1</constant_attenuation>
          <linear_attenuation>0</linear_attenuation>
          <quadratic_attenuation>0.00111109</quadratic_attenuation>
        </point>
      </technique_common>
      <extra>
        <technique profile="blender">
          <type sid="type" type="int">0</type>
          <flag sid="flag" type="int">0</flag>
          <mode sid="mode" type="int">1</mode>
          <gamma sid="blender_gamma" type="float">1</gamma>
          <red sid="red" type="float">1</red>
          <green sid="green" type="float">1</green>
          <blue sid="blue" type="float">1</blue>
          <shadow_r sid="blender_shadow_r" type="float">0</shadow_r>
          <shadow_g sid="blender_shadow_g" type="float">0</shadow_g>
          <shadow_b sid="blender_shadow_b" type="float">0</shadow_b>
          <energy sid="blender_energy" type="float">1000</energy>
          <dist sid="blender_dist" type="float">29.99998</dist>
          <spotsize sid="spotsize" type="float">75</spotsize>
          <spotblend sid="spotblend" type="float">0.15</spotblend>
          <att1 sid="att1" type="float">0</att1>
          <att2 sid="att2" type="float">1</att2>
          <falloff_type sid="falloff_type" type="int">2</falloff_type>
          <clipsta sid="clipsta" type="float">0.04999995</clipsta>
          <clipend sid="clipend" type="float">30.002</clipend>
          <bias sid="bias" type="float">1</bias>
          <soft sid="soft" type="float">3</soft>
          <bufsize sid="bufsize" type="int">2880</bufsize>
          <samp sid="samp" type="int">3</samp>
          <buffers sid="buffers" type="int">1</buffers>
          <area_shape sid="area_shape" type="int">1</area_shape>
          <area_size sid="area_size" type="float">0.1</area_size>
          <area_sizey sid="area_sizey" type="float">0.1</area_sizey>
          <area_sizez sid="area_sizez" type="float">1</area_sizez>
        </technique>
      </extra>
    </light>
  </library_lights>
  <library_effects>
    <effect id="Material-effect">
      <profile_COMMON>
        <technique sid="common">
          <lambert>
            <emission>
              <color sid="emission">0 0 0 1</color>
            </emission>
            <diffuse>
              <color sid="diffuse">0.8 0.8 0.8 1</color>
            </diffuse>
            <index_of_refraction>
              <float sid="ior">1.45</float>
            </index_of_refraction>
          </lambert>
        </technique>
      </profile_COMMON>
    </effect>
  </library_effects>
  <library_images/>
  <library_materials>
    <material id="Material-material" name="Material">
      <instance_effect url="#Material-effect"/>
    </material>
  </library_materials>
  <library_geometries>
    <geometry id="Cube_014-mesh" name="Cube.014">
      <mesh>
        <source id="Cube_014-mesh-positions">
          <float_array id="Cube_014-mesh-positions-array" count="384">1 1 1 1 1 -1 1 -1 1 1 -1 -1 -1 1 1 -1 1 -1 -1 -1 1 -1 -1 -1 -0.9999999 -190.071 1 -0.9999999 -190.071 -1 -0.967213 -190.071 1 -0.967213 -190.071 -1 -1 -0.9290009 1 -1 -0.9290009 -1 -0.9672132 -0.9290009 1 -0.9672132 -0.9290009 -1 0.9672133 -190.071 1 0.9672133 -190.071 -1 1 -190.071 1 1 -190.071 -1 0.9672132 -0.9290009 1 0.9672132 -0.9290009 -1 1 -0.9290009 1 1 -0.9290009 -1 -0.2786885 -43 1 -0.2786885 -43 -1 -0.2459016 -43 1 -0.2459016 -43 -1 -0.2786885 -1 1 -0.2786885 -1 -1 -0.2459016 -1 1 -0.2459016 -1 -1 -0.2786884 -114.5 1 -0.2786884 -114.5 -1 -0.2459015 -114.5 1 -0.2459015 -114.5 -1 -0.2786884 -74.5 1 -0.2786884 -74.5 -1 -0.2459015 -74.5 1 -0.2459015 -74.5 -1 -0.2786884 -190.0722 1 -0.2786884 -190.0722 -1 -0.2459015 -190.0722 1 -0.2459015 -190.0722 -1 -0.2786884 -150.0722 1 -0.2786884 -150.0722 -1 -0.2459015 -150.0722 1 -0.2459015 -150.0722 -1 0.2459017 -43 1 0.2459017 -43 -1 0.2786886 -43 1 0.2786886 -43 -1 0.2459017 -1 1 0.2459017 -1 -1 0.2786886 -1 1 0.2786886 -1 -1 0.2459017 -114.5 1 0.2459017 -114.5 -1 0.2786886 -114.5 1 0.2786886 -114.5 -1 0.2459017 -74.5 1 0.2459017 -74.5 -1 0.2786886 -74.5 1 0.2786886 -74.5 -1 0.2459018 -190.0722 1 0.2459018 -190.0722 -1 0.2786887 -190.0722 1 0.2786887 -190.0722 -1 0.2459017 -150.0722 1 0.2459017 -150.0722 -1 0.2786886 -150.0722 1 0.2786886 -150.0722 -1 -1.655737 -288.08 1 -1.655737 -288.08 -1 -1.622951 -288.08 1 -1.622951 -288.08 -1 -1.655737 -192.08 1 -1.655737 -192.08 -1 -1.622951 -192.08 1 -1.622951 -192.08 -1 -1.655737 -288 1 -1.655737 -288 -1 -1.655737 -290 1 -1.655737 -290 -1 1.655738 -288 1 1.655738 -288 -1 1.655738 -290 1 1.655738 -290 -1 1.622951 -288.08 1 1.622951 -288.08 -1 1.655738 -288.08 1 1.655738 -288.08 -1 1.622951 -192.08 1 1.622951 -192.08 -1 1.655738 -192.08 1 1.655738 -192.08 -1 1.655738 -190.0722 1 1.655738 -190.0722 -1 1.655738 -192.0722 1 1.655738 -192.0722 -1 0.1803279 -190.0722 1 0.1803279 -190.0722 -1 0.1803279 -192.0722 1 0.1803279 -192.0722 -1 -0.1803277 -190 1 -0.1803277 -190 -1 -0.1803277 -192 1 -0.1803277 -192 -1 -1.655738 -190 1 -1.655738 -190 -1 -1.655738 -192 1 -1.655738 -192 -1 -0.2786884 -94.07723 1 -0.2786884 -94.07723 -1 -0.2786884 -96.07723 1 -0.2786884 -96.07723 -1 -0.967213 -94.07723 1 -0.967213 -94.07723 -1 -0.967213 -96.07723 1 -0.967213 -96.07723 -1 0.9672132 -94.07723 1 0.9672132 -94.07723 -1 0.9672132 -96.07723 1 0.9672132 -96.07723 -1 0.2786886 -94.07723 1 0.2786886 -94.07723 -1 0.2786886 -96.07723 1 0.2786886 -96.07723 -1</float_array>
          <technique_common>
            <accessor source="#Cube_014-mesh-positions-array" count="128" stride="3">
              <param name="X" type="float"/>
              <param name="Y" type="float"/>
              <param name="Z" type="float"/>
            </accessor>
          </technique_common>
        </source>
        <source id="Cube_014-mesh-normals">
          <float_array id="Cube_014-mesh-normals-array" count="51">0 0 1 0 -1 0 -1 0 0 0 0 -1 1 0 0 0 1 0 -1 0 0 1 0 0 -1 0 0 -1 0 0 1 0 0 -1 0 0 1 0 0 -1 0 0 1 0 0 -1 0 0 1 0 0</float_array>
          <technique_common>
            <accessor source="#Cube_014-mesh-normals-array" count="17" stride="3">
              <param name="X" type="float"/>
              <param name="Y" type="float"/>
              <param name="Z" type="float"/>
            </accessor>
          </technique_common>
        </source>
        <source id="Cube_014-mesh-map-0">
          <float_array id="Cube_014-mesh-map-0-array" count="1152">0.875 0.5 0.625 0.75 0.625 0.5 0.625 0.75 0.375 1 0.375 0.75 0.625 0 0.375 0.25 0.375 0 0.375 0.5 0.125 0.75 0.125 0.5 0.625 0.5 0.375 0.75 0.375 0.5 0.625 0.25 0.375 0.5 0.375 0.25 0.875 0.5 0.625 0.75 0.625 0.5 0.625 0.75 0.375 1 0.375 0.75 0.625 0 0.375 0.25 0.375 0 0.375 0.5 0.125 0.75 0.125 0.5 0.625 0.5 0.375 0.75 0.375 0.5 0.625 0.25 0.375 0.5 0.375 0.25 0.875 0.5 0.625 0.75 0.625 0.5 0.625 0.75 0.375 1 0.375 0.75 0.625 0 0.375 0.25 0.375 0 0.375 0.5 0.125 0.75 0.125 0.5 0.625 0.5 0.375 0.75 0.375 0.5 0.625 0.25 0.375 0.5 0.375 0.25 0.875 0.5 0.625 0.75 0.625 0.5 0.625 0.75 0.375 1 0.375 0.75 0.625 0 0.375 0.25 0.375 0 0.375 0.5 0.125 0.75 0.125 0.5 0.625 0.5 0.375 0.75 0.375 0.5 0.625 0.25 0.375 0.5 0.375 0.25 0.875 0.5 0.625 0.75 0.625 0.5 0.625 0.75 0.375 1 0.375 0.75 0.625 0 0.375 0.25 0.375 0 0.375 0.5 0.125 0.75 0.125 0.5 0.625 0.5 0.375 0.75 0.375 0.5 0.625 0.25 0.375 0.5 0.375 0.25 0.875 0.5 0.625 0.75 0.625 0.5 0.625 0.75 0.375 1 0.375 0.75 0.625 0 0.375 0.25 0.375 0 0.375 0.5 0.125 0.75 0.125 0.5 0.625 0.5 0.375 0.75 0.375 0.5 0.625 0.25 0.375 0.5 0.375 0.25 0.875 0.5 0.625 0.75 0.625 0.5 0.625 0.75 0.375 1 0.375 0.75 0.625 0 0.375 0.25 0.375 0 0.375 0.5 0.125 0.75 0.125 0.5 0.625 0.5 0.375 0.75 0.375 0.5 0.625 0.25 0.375 0.5 0.375 0.25 0.875 0.5 0.625 0.75 0.625 0.5 0.625 0.75 0.375 1 0.375 0.75 0.625 0 0.375 0.25 0.375 0 0.375 0.5 0.125 0.75 0.125 0.5 0.625 0.5 0.375 0.75 0.375 0.5 0.625 0.25 0.375 0.5 0.375 0.25 0.875 0.5 0.625 0.75 0.625 0.5 0.625 0.75 0.375 1 0.375 0.75 0.625 0 0.375 0.25 0.375 0 0.375 0.5 0.125 0.75 0.125 0.5 0.625 0.5 0.375 0.75 0.375 0.5 0.625 0.25 0.375 0.5 0.375 0.25 0.875 0.5 0.625 0.75 0.625 0.5 0.625 0.75 0.375 1 0.375 0.75 0.625 0 0.375 0.25 0.375 0 0.375 0.5 0.125 0.75 0.125 0.5 0.625 0.5 0.375 0.75 0.375 0.5 0.625 0.25 0.375 0.5 0.375 0.25 0.875 0.5 0.625 0.75 0.625 0.5 0.625 0.75 0.375 1 0.375 0.75 0.625 0 0.375 0.25 0.375 0 0.375 0.5 0.125 0.75 0.125 0.5 0.625 0.5 0.375 0.75 0.375 0.5 0.625 0.25 0.375 0.5 0.375 0.25 0.875 0.5 0.625 0.75 0.625 0.5 0.625 0.75 0.375 1 0.375 0.75 0.625 0 0.375 0.25 0.375 0 0.375 0.5 0.125 0.75 0.125 0.5 0.625 0.5 0.375 0.75 0.375 0.5 0.625 0.25 0.375 0.5 0.375 0.25 0.875 0.5 0.625 0.75 0.625 0.5 0.625 0.75 0.375 1 0.375 0.75 0.625 0 0.375 0.25 0.375 0 0.375 0.5 0.125 0.75 0.125 0.5 0.625 0.5 0.375 0.75 0.375 0.5 0.625 0.25 0.375 0.5 0.375 0.25 0.875 0.5 0.625 0.75 0.625 0.5 0.625 0.75 0.375 1 0.375 0.75 0.625 0 0.375 0.25 0.375 0 0.375 0.5 0.125 0.75 0.125 0.5 0.625 0.5 0.375 0.75 0.375 0.5 0.625 0.25 0.375 0.5 0.375 0.25 0.875 0.5 0.625 0.75 0.625 0.5 0.625 0.75 0.375 1 0.375 0.75 0.625 0 0.375 0.25 0.375 0 0.375 0.5 0.125 0.75 0.125 0.5 0.625 0.5 0.375 0.75 0.375 0.5 0.625 0.25 0.375 0.5 0.375 0.25 0.875 0.5 0.625 0.75 0.625 0.5 0.625 0.75 0.375 1 0.375 0.75 0.625 0 0.375 0.25 0.375 0 0.375 0.5 0.125 0.75 0.125 0.5 0.625 0.5 0.375 0.75 0.375 0.5 0.625 0.25 0.375 0.5 0.375 0.25 0.875 0.5 0.875 0.75 0.625 0.75 0.625 0.75 0.625 1 0.375 1 0.625 0 0.625 0.25 0.375 0.25 0.375 0.5 0.375 0.75 0.125 0.75 0.625 0.5 0.625 0.75 0.375 0.75 0.625 0.25 0.625 0.5 0.375 0.5 0.875 0.5 0.875 0.75 0.625 0.75 0.625 0.75 0.625 1 0.375 1 0.625 0 0.625 0.25 0.375 0.25 0.375 0.5 0.375 0.75 0.125 0.75 0.625 0.5 0.625 0.75 0.375 0.75 0.625 0.25 0.625 0.5 0.375 0.5 0.875 0.5 0.875 0.75 0.625 0.75 0.625 0.75 0.625 1 0.375 1 0.625 0 0.625 0.25 0.375 0.25 0.375 0.5 0.375 0.75 0.125 0.75 0.625 0.5 0.625 0.75 0.375 0.75 0.625 0.25 0.625 0.5 0.375 0.5 0.875 0.5 0.875 0.75 0.625 0.75 0.625 0.75 0.625 1 0.375 1 0.625 0 0.625 0.25 0.375 0.25 0.375 0.5 0.375 0.75 0.125 0.75 0.625 0.5 0.625 0.75 0.375 0.75 0.625 0.25 0.625 0.5 0.375 0.5 0.875 0.5 0.875 0.75 0.625 0.75 0.625 0.75 0.625 1 0.375 1 0.625 0 0.625 0.25 0.375 0.25 0.375 0.5 0.375 0.75 0.125 0.75 0.625 0.5 0.625 0.75 0.375 0.75 0.625 0.25 0.625 0.5 0.375 0.5 0.875 0.5 0.875 0.75 0.625 0.75 0.625 0.75 0.625 1 0.375 1 0.625 0 0.625 0.25 0.375 0.25 0.375 0.5 0.375 0.75 0.125 0.75 0.625 0.5 0.625 0.75 0.375 0.75 0.625 0.25 0.625 0.5 0.375 0.5 0.875 0.5 0.875 0.75 0.625 0.75 0.625 0.75 0.625 1 0.375 1 0.625 0 0.625 0.25 0.375 0.25 0.375 0.5 0.375 0.75 0.125 0.75 0.625 0.5 0.625 0.75 0.375 0.75 0.625 0.25 0.625 0.5 0.375 0.5 0.875 0.5 0.875 0.75 0.625 0.75 0.625 0.75 0.625 1 0.375 1 0.625 0 0.625 0.25 0.375 0.25 0.375 0.5 0.375 0.75 0.125 0.75 0.625 0.5 0.625 0.75 0.375 0.75 0.625 0.25 0.625 0.5 0.375 0.5 0.875 0.5 0.875 0.75 0.625 0.75 0.625 0.75 0.625 1 0.375 1 0.625 0 0.625 0.25 0.375 0.25 0.375 0.5 0.375 0.75 0.125 0.75 0.625 0.5 0.625 0.75 0.375 0.75 0.625 0.25 0.625 0.5 0.375 0.5 0.875 0.5 0.875 0.75 0.625 0.75 0.625 0.75 0.625 1 0.375 1 0.625 0 0.625 0.25 0.375 0.25 0.375 0.5 0.375 0.75 0.125 0.75 0.625 0.5 0.625 0.75 0.375 0.75 0.625 0.25 0.625 0.5 0.375 0.5 0.875 0.5 0.875 0.75 0.625 0.75 0.625 0.75 0.625 1 0.375 1 0.625 0 0.625 0.25 0.375 0.25 0.375 0.5 0.375 0.75 0.125 0.75 0.625 0.5 0.625 0.75 0.375 0.75 0.625 0.25 0.625 0.5 0.375 0.5 0.875 0.5 0.875 0.75 0.625 0.75 0.625 0.75 0.625 1 0.375 1 0.625 0 0.625 0.25 0.375 0.25 0.375 0.5 0.375 0.75 0.125 0.75 0.625 0.5 0.625 0.75 0.375 0.75 0.625 0.25 0.625 0.5 0.375 0.5 0.875 0.5 0.875 0.75 0.625 0.75 0.625 0.75 0.625 1 0.375 1 0.625 0 0.625 0.25 0.375 0.25 0.375 0.5 0.375 0.75 0.125 0.75 0.625 0.5 0.625 0.75 0.375 0.75 0.625 0.25 0.625 0.5 0.375 0.5 0.875 0.5 0.875 0.75 0.625 0.75 0.625 0.75 0.625 1 0.375 1 0.625 0 0.625 0.25 0.375 0.25 0.375 0.5 0.375 0.75 0.125 0.75 0.625 0.5 0.625 0.75 0.375 0.75 0.625 0.25 0.625 0.5 0.375 0.5 0.875 0.5 0.875 0.75 0.625 0.75 0.625 0.75 0.625 1 0.375 1 0.625 0 0.625 0.25 0.375 0.25 0.375 0.5 0.375 0.75 0.125 0.75 0.625 0.5 0.625 0.75 0.375 0.75 0.625 0.25 0.625 0.5 0.375 0.5 0.875 0.5 0.875 0.75 0.625 0.75 0.625 0.75 0.625 1 0.375 1 0.625 0 0.625 0.25 0.375 0.25 0.375 0.5 0.375 0.75 0.125 0.75 0.625 0.5 0.625 0.75 0.375 0.75 0.625 0.25 0.625 0.5 0.375 0.5</float_array>
          <technique_common>
            <accessor source="#Cube_014-mesh-map-0-array" count="576" stride="2">
              <param name="S" type="float"/>
              <param name="T" type="float"/>
            </accessor>
          </technique_common>
        </source>
        <vertices id="Cube_014-mesh-vertices">
          <input semantic="POSITION" source="#Cube_014-mesh-positions"/>
        </vertices>
        <triangles material="Material-material" count="192">
          <input semantic="VERTEX" source="#Cube_014-mesh-vertices" offset="0"/>
          <input semantic="NORMAL" source="#Cube_014-mesh-normals" offset="1"/>
          <input semantic="TEXCOORD" source="#Cube_014-mesh-map-0" offset="2" set="0"/>
          <p>4 0 0 2 0 1 0 0 2 2 1 3 7 1 4 3 1 5 6 2 6 5 2 7 7 2 8 1 3 9 7 3 10 5 3 11 0 4 12 3 4 13 1 4 14 4 5 15 1 5 16 5 5 17 12 3 18 10 3 19 8 3 20 10 6 21 15 6 22 11 6 23 14 1 24 13 1 25 15 1 26 9 0 27 15 0 28 13 0 29 8 5 30 11 5 31 9 5 32 12 7 33 9 7 34 13 7 35 20 3 36 18 3 37 16 3 38 18 8 39 23 8 40 19 8 41 22 1 42 21 1 43 23 1 44 17 0 45 23 0 46 21 0 47 16 5 48 19 5 49 17 5 50 20 7 51 17 7 52 21 7 53 28 3 54 26 3 55 24 3 56 26 9 57 31 9 58 27 9 59 30 1 60 29 1 61 31 1 62 25 0 63 31 0 64 29 0 65 24 5 66 27 5 67 25 5 68 28 10 69 25 10 70 29 10 71 36 3 72 34 3 73 32 3 74 34 11 75 39 11 76 35 11 77 38 1 78 37 1 79 39 1 80 33 0 81 39 0 82 37 0 83 32 5 84 35 5 85 33 5 86 36 12 87 33 12 88 37 12 89 44 3 90 42 3 91 40 3 92 42 11 93 47 11 94 43 11 95 46 1 96 45 1 97 47 1 98 41 0 99 47 0 100 45 0 101 40 5 102 43 5 103 41 5 104 44 4 105 41 4 106 45 4 107 52 3 108 50 3 109 48 3 110 50 13 111 55 13 112 51 13 113 54 1 114 53 1 115 55 1 116 49 0 117 55 0 118 53 0 119 48 5 120 51 5 121 49 5 122 52 14 123 49 14 124 53 14 125 60 3 126 58 3 127 56 3 128 58 15 129 63 15 130 59 15 131 62 1 132 61 1 133 63 1 134 57 0 135 63 0 136 61 0 137 56 5 138 59 5 139 57 5 140 60 16 141 57 16 142 61 16 143 68 3 144 66 3 145 64 3 146 66 2 147 71 2 148 67 2 149 70 1 150 69 1 151 71 1 152 65 0 153 71 0 154 69 0 155 64 5 156 67 5 157 65 5 158 68 16 159 65 16 160 69 16 161 76 3 162 74 3 163 72 3 164 74 2 165 79 2 166 75 2 167 78 1 168 77 1 169 79 1 170 73 0 171 79 0 172 77 0 173 72 5 174 75 5 175 73 5 176 76 4 177 73 4 178 77 4 179 84 3 180 82 3 181 80 3 182 82 5 183 87 5 184 83 5 185 86 2 186 85 2 187 87 2 188 81 0 189 87 0 190 85 0 191 80 4 192 83 4 193 81 4 194 84 1 195 81 1 196 85 1 197 92 3 198 90 3 199 88 3 200 90 2 201 95 2 202 91 2 203 94 1 204 93 1 205 95 1 206 89 0 207 95 0 208 93 0 209 88 5 210 91 5 211 89 5 212 92 4 213 89 4 214 93 4 215 100 0 216 98 0 217 96 0 218 98 1 219 103 1 220 99 1 221 102 2 222 101 2 223 103 2 224 97 3 225 103 3 226 101 3 227 96 4 228 99 4 229 97 4 230 100 5 231 97 5 232 101 5 233 108 0 234 106 0 235 104 0 236 106 1 237 111 1 238 107 1 239 110 2 240 109 2 241 111 2 242 105 3 243 111 3 244 109 3 245 104 4 246 107 4 247 105 4 248 108 5 249 105 5 250 109 5 251 116 0 252 114 0 253 112 0 254 114 1 255 119 1 256 115 1 257 118 2 258 117 2 259 119 2 260 113 3 261 119 3 262 117 3 263 112 4 264 115 4 265 113 4 266 116 5 267 113 5 268 117 5 269 124 0 270 122 0 271 120 0 272 122 1 273 127 1 274 123 1 275 126 2 276 125 2 277 127 2 278 121 3 279 127 3 280 125 3 281 120 4 282 123 4 283 121 4 284 124 5 285 121 5 286 125 5 287 4 0 288 6 0 289 2 0 290 2 1 291 6 1 292 7 1 293 6 2 294 4 2 295 5 2 296 1 3 297 3 3 298 7 3 299 0 4 300 2 4 301 3 4 302 4 5 303 0 5 304 1 5 305 12 3 306 14 3 307 10 3 308 10 6 309 14 6 310 15 6 311 14 1 312 12 1 313 13 1 314 9 0 315 11 0 316 15 0 317 8 5 318 10 5 319 11 5 320 12 7 321 8 7 322 9 7 323 20 3 324 22 3 325 18 3 326 18 2 327 22 2 328 23 2 329 22 1 330 20 1 331 21 1 332 17 0 333 19 0 334 23 0 335 16 5 336 18 5 337 19 5 338 20 7 339 16 7 340 17 7 341 28 3 342 30 3 343 26 3 344 26 9 345 30 9 346 31 9 347 30 1 348 28 1 349 29 1 350 25 0 351 27 0 352 31 0 353 24 5 354 26 5 355 27 5 356 28 4 357 24 4 358 25 4 359 36 3 360 38 3 361 34 3 362 34 11 363 38 11 364 39 11 365 38 1 366 36 1 367 37 1 368 33 0 369 35 0 370 39 0 371 32 5 372 34 5 373 35 5 374 36 4 375 32 4 376 33 4 377 44 3 378 46 3 379 42 3 380 42 11 381 46 11 382 47 11 383 46 1 384 44 1 385 45 1 386 41 0 387 43 0 388 47 0 389 40 5 390 42 5 391 43 5 392 44 12 393 40 12 394 41 12 395 52 3 396 54 3 397 50 3 398 50 2 399 54 2 400 55 2 401 54 1 402 52 1 403 53 1 404 49 0 405 51 0 406 55 0 407 48 5 408 50 5 409 51 5 410 52 14 411 48 14 412 49 14 413 60 3 414 62 3 415 58 3 416 58 2 417 62 2 418 63 2 419 62 1 420 60 1 421 61 1 422 57 0 423 59 0 424 63 0 425 56 5 426 58 5 427 59 5 428 60 16 429 56 16 430 57 16 431 68 3 432 70 3 433 66 3 434 66 15 435 70 15 436 71 15 437 70 1 438 68 1 439 69 1 440 65 0 441 67 0 442 71 0 443 64 5 444 66 5 445 67 5 446 68 16 447 64 16 448 65 16 449 76 3 450 78 3 451 74 3 452 74 2 453 78 2 454 79 2 455 78 1 456 76 1 457 77 1 458 73 0 459 75 0 460 79 0 461 72 5 462 74 5 463 75 5 464 76 4 465 72 4 466 73 4 467 84 3 468 86 3 469 82 3 470 82 5 471 86 5 472 87 5 473 86 2 474 84 2 475 85 2 476 81 0 477 83 0 478 87 0 479 80 4 480 82 4 481 83 4 482 84 1 483 80 1 484 81 1 485 92 3 486 94 3 487 90 3 488 90 2 489 94 2 490 95 2 491 94 1 492 92 1 493 93 1 494 89 0 495 91 0 496 95 0 497 88 5 498 90 5 499 91 5 500 92 4 501 88 4 502 89 4 503 100 0 504 102 0 505 98 0 506 98 1 507 102 1 508 103 1 509 102 2 510 100 2 511 101 2 512 97 3 513 99 3 514 103 3 515 96 4 516 98 4 517 99 4 518 100 5 519 96 5 520 97 5 521 108 0 522 110 0 523 106 0 524 106 1 525 110 1 526 111 1 527 110 2 528 108 2 529 109 2 530 105 3 531 107 3 532 111 3 533 104 4 534 106 4 535 107 4 536 108 5 537 104 5 538 105 5 539 116 0 540 118 0 541 114 0 542 114 1 543 118 1 544 119 1 545 118 2 546 116 2 547 117 2 548 113 3 549 115 3 550 119 3 551 112 4 552 114 4 553 115 4 554 116 5 555 112 5 556 113 5 557 124 0 558 126 0 559 122 0 560 122 1 561 126 1 562 127 1 563 126 2 564 124 2 565 125 2 566 121 3 567 123 3 568 127 3 569 120 4 570 122 4 571 123 4 572 124 5 573 120 5 574 121 5 575</p>
        </triangles>
      </mesh>
    </geometry>
    <geometry id="Plane-mesh" name="Plane">
      <mesh>
        <source id="Plane-mesh-positions">
          <float_array id="Plane-mesh-positions-array" count="12">-1 -1 0 1 -1 0 -1 1 0 1 1 0</float_array>
          <technique_common>
            <accessor source="#Plane-mesh-positions-array" count="4" stride="3">
              <param name="X" type="float"/>
              <param name="Y" type="float"/>
              <param name="Z" type="float"/>
            </accessor>
          </technique_common>
        </source>
        <source id="Plane-mesh-normals">
          <float_array id="Plane-mesh-normals-array" count="3">0 0 1</float_array>
          <technique_common>
            <accessor source="#Plane-mesh-normals-array" count="1" stride="3">
              <param name="X" type="float"/>
              <param name="Y" type="float"/>
              <param name="Z" type="float"/>
            </accessor>
          </technique_common>
        </source>
        <source id="Plane-mesh-map-0">
          <float_array id="Plane-mesh-map-0-array" count="12">1 0 0 1 0 0 1 0 1 1 0 1</float_array>
          <technique_common>
            <accessor source="#Plane-mesh-map-0-array" count="6" stride="2">
              <param name="S" type="float"/>
              <param name="T" type="float"/>
            </accessor>
          </technique_common>
        </source>
        <vertices id="Plane-mesh-vertices">
          <input semantic="POSITION" source="#Plane-mesh-positions"/>
        </vertices>
        <triangles count="2">
          <input semantic="VERTEX" source="#Plane-mesh-vertices" offset="0"/>
          <input semantic="NORMAL" source="#Plane-mesh-normals" offset="1"/>
          <input semantic="TEXCOORD" source="#Plane-mesh-map-0" offset="2" set="0"/>
          <p>1 0 0 2 0 1 0 0 2 1 0 3 3 0 4 2 0 5</p>
        </triangles>
      </mesh>
    </geometry>
  </library_geometries>
  <library_visual_scenes>
    <visual_scene id="Scene" name="Scene">
      <node id="Cube_013" name="Cube.013" type="NODE">
        <matrix sid="transform">1.3332e-7 -0.05 0 -9.55 -3.05 -2.18557e-9 0 0 0 0 1 0.5 0 0 0 1</matrix>
        <instance_geometry url="#Cube_014-mesh" name="Cube.013">
          <bind_material>
            <technique_common>
              <instance_material symbol="Material-material" target="#Material-material">
                <bind_vertex_input semantic="UVMap" input_semantic="TEXCOORD" input_set="0"/>
              </instance_material>
            </technique_common>
          </bind_material>
        </instance_geometry>
      </node>
      <node id="Plane" name="Plane" type="NODE">
        <matrix sid="transform">18.95654 0 0 0 0 18.95654 0 0 0 0 18.95654 0 0 0 0 1</matrix>
        <instance_geometry url="#Plane-mesh" name="Plane"/>
      </node>
      <node id="Camera" name="Camera" type="NODE">
        <matrix sid="transform">0.6859207 -0.3240135 0.6515582 7.358891 0.7276763 0.3054208 -0.6141704 -6.925791 0 0.8953956 0.4452714 4.958309 0 0 0 1</matrix>
        <instance_camera url="#Camera-camera"/>
      </node>
      <node id="Light" name="Light" type="NODE">
        <matrix sid="transform">-0.2908646 -0.7711008 0.5663932 4.622199 0.9551712 -0.1998834 0.2183912 1.005454 -0.05518906 0.6045247 0.7946723 5.903862 0 0 0 1</matrix>
        <instance_light url="#Light-light"/>
      </node>
    </visual_scene>
  </library_visual_scenes>
  <scene>
    <instance_visual_scene url="#Scene"/>
  </scene>
</COLLADA>